<svg xmlns="http://www.w3.org/2000/svg" viewBox="0 0 150 130" fill="black">
  <path
    d="M138.6,65.58c-14.5,7.78-29.85,6.52-42.94-2.79C66.95,43.15,38.38,23.3,9.92,3.32c-1.67-1.16-3.46-2.36-5.6-1.1 C2.29,3.41,2.03,5.41,2.03,7.53C2.02,24.06,1.98,40.58,2.04,57.11c0.01,3.08,0.62,3.44,3.33,2.11c2.79-1.37,5.45-3.02,8.27-4.33 c14.07-6.5,27.83-6.29,40.81,2.66c6.56,4.53,12.75,9.6,19.03,14.52c21.94,17.2,43.84,34.46,65.79,51.64 c1.72,1.35,3.39,3.13,6.01,1.82c1.62-0.81,1.62-2.79,1.62-4.88c0.02-37.26,0-74.83,0.09-112.57c0-4.82-3.32-5.9-5.83-3.85 c-12.97,10.65-26.96,22.64-40.61,33.97c-3.17,2.63-3.14,2.92,0.22,5.2C113.13,51.03,124.61,59.7,138.6,65.58z M2.28,120.24c-0.13,4.72,3.75,6.69,7.9,4.45c1.9-1.02,3.68-2.29,5.42-3.57c11.59-8.45,23.17-16.92,34.74-25.41 c3.38-2.48,6.77-4.96,10.08-7.53c2.41-1.87,2.4-2.34-0.08-4.17c-6.32-4.65-12.61-9.36-19.07-13.82 C23.93,58.51,16.7,58.82,3.29,75.83c-1.13,1.47-1.04,2.7-0.99,4.59L2.28,120.24z" />
</svg>
